<mxfile host="app.diagrams.net" modified="2021-07-10T08:35:43.400Z" agent="5.0 (Windows)" etag="1h577WnJbt8Lle1GlZGz" version="14.8.5" type="github">
  <diagram id="OY0To140ew9zJ7s9oqbe" name="Page-1">
    <mxGraphModel dx="1422" dy="780" grid="1" gridSize="10" guides="1" tooltips="1" connect="1" arrows="1" fold="1" page="1" pageScale="1" pageWidth="827" pageHeight="1169" math="0" shadow="0">
      <root>
        <mxCell id="0" />
        <mxCell id="1" parent="0" />
        <mxCell id="4wot5gAjoAc78PF7fRiK-5" style="edgeStyle=orthogonalEdgeStyle;rounded=0;orthogonalLoop=1;jettySize=auto;html=1;entryX=0.5;entryY=0;entryDx=0;entryDy=0;" edge="1" parent="1" source="4wot5gAjoAc78PF7fRiK-1" target="4wot5gAjoAc78PF7fRiK-4">
          <mxGeometry relative="1" as="geometry">
            <mxPoint x="335" y="140" as="targetPoint" />
          </mxGeometry>
        </mxCell>
        <mxCell id="4wot5gAjoAc78PF7fRiK-1" value="アプリの起動" style="strokeWidth=2;html=1;shape=mxgraph.flowchart.start_1;whiteSpace=wrap;" vertex="1" parent="1">
          <mxGeometry x="285" y="30" width="100" height="60" as="geometry" />
        </mxCell>
        <mxCell id="4wot5gAjoAc78PF7fRiK-7" style="edgeStyle=orthogonalEdgeStyle;rounded=0;orthogonalLoop=1;jettySize=auto;html=1;entryX=0;entryY=0.5;entryDx=0;entryDy=0;" edge="1" parent="1" source="4wot5gAjoAc78PF7fRiK-2" target="4wot5gAjoAc78PF7fRiK-4">
          <mxGeometry relative="1" as="geometry" />
        </mxCell>
        <mxCell id="4wot5gAjoAc78PF7fRiK-2" value="問題（xml形式）" style="shape=parallelogram;html=1;strokeWidth=2;perimeter=parallelogramPerimeter;whiteSpace=wrap;rounded=1;arcSize=12;size=0.23;" vertex="1" parent="1">
          <mxGeometry x="40" y="170" width="150" height="50" as="geometry" />
        </mxCell>
        <mxCell id="4wot5gAjoAc78PF7fRiK-9" style="edgeStyle=orthogonalEdgeStyle;rounded=0;orthogonalLoop=1;jettySize=auto;html=1;entryX=0.5;entryY=0;entryDx=0;entryDy=0;" edge="1" parent="1" source="4wot5gAjoAc78PF7fRiK-4" target="4wot5gAjoAc78PF7fRiK-8">
          <mxGeometry relative="1" as="geometry" />
        </mxCell>
        <mxCell id="4wot5gAjoAc78PF7fRiK-4" value="問題を読み込む関数" style="verticalLabelPosition=bottom;verticalAlign=top;html=1;shape=process;whiteSpace=wrap;rounded=1;size=0.14;arcSize=6;" vertex="1" parent="1">
          <mxGeometry x="271" y="170" width="128" height="50" as="geometry" />
        </mxCell>
        <mxCell id="4wot5gAjoAc78PF7fRiK-13" style="edgeStyle=orthogonalEdgeStyle;rounded=0;orthogonalLoop=1;jettySize=auto;html=1;entryX=0.5;entryY=0;entryDx=0;entryDy=0;" edge="1" parent="1" source="4wot5gAjoAc78PF7fRiK-8" target="4wot5gAjoAc78PF7fRiK-15">
          <mxGeometry relative="1" as="geometry">
            <mxPoint x="335" y="470" as="targetPoint" />
          </mxGeometry>
        </mxCell>
        <mxCell id="4wot5gAjoAc78PF7fRiK-8" value="レイアウトを読み込む関数" style="verticalLabelPosition=bottom;verticalAlign=top;html=1;shape=process;whiteSpace=wrap;rounded=1;size=0.14;arcSize=6;" vertex="1" parent="1">
          <mxGeometry x="250" y="310" width="170" height="60" as="geometry" />
        </mxCell>
        <mxCell id="4wot5gAjoAc78PF7fRiK-11" style="edgeStyle=orthogonalEdgeStyle;rounded=0;orthogonalLoop=1;jettySize=auto;html=1;entryX=0;entryY=0.5;entryDx=0;entryDy=0;" edge="1" parent="1" source="4wot5gAjoAc78PF7fRiK-10" target="4wot5gAjoAc78PF7fRiK-8">
          <mxGeometry relative="1" as="geometry" />
        </mxCell>
        <mxCell id="4wot5gAjoAc78PF7fRiK-10" value="layout(xml形式)" style="shape=parallelogram;html=1;strokeWidth=2;perimeter=parallelogramPerimeter;whiteSpace=wrap;rounded=1;arcSize=12;size=0.23;" vertex="1" parent="1">
          <mxGeometry x="20" y="310" width="140" height="60" as="geometry" />
        </mxCell>
        <mxCell id="4wot5gAjoAc78PF7fRiK-18" style="edgeStyle=orthogonalEdgeStyle;rounded=0;orthogonalLoop=1;jettySize=auto;html=1;entryX=0.5;entryY=0;entryDx=0;entryDy=0;entryPerimeter=0;" edge="1" parent="1" source="4wot5gAjoAc78PF7fRiK-15" target="4wot5gAjoAc78PF7fRiK-17">
          <mxGeometry relative="1" as="geometry" />
        </mxCell>
        <mxCell id="4wot5gAjoAc78PF7fRiK-15" value="クイズを制御する関数" style="verticalLabelPosition=bottom;verticalAlign=top;html=1;shape=process;whiteSpace=wrap;rounded=1;size=0.14;arcSize=6;" vertex="1" parent="1">
          <mxGeometry x="285" y="450" width="100" height="60" as="geometry" />
        </mxCell>
        <mxCell id="4wot5gAjoAc78PF7fRiK-17" value="終了" style="strokeWidth=2;html=1;shape=mxgraph.flowchart.terminator;whiteSpace=wrap;" vertex="1" parent="1">
          <mxGeometry x="285" y="585" width="100" height="60" as="geometry" />
        </mxCell>
        <mxCell id="4wot5gAjoAc78PF7fRiK-19" value="主な挙動" style="text;html=1;strokeColor=none;fillColor=none;align=center;verticalAlign=middle;whiteSpace=wrap;rounded=0;labelBackgroundColor=#FF66FF;fontSize=24;" vertex="1" parent="1">
          <mxGeometry x="110" y="80" width="110" height="20" as="geometry" />
        </mxCell>
        <mxCell id="4wot5gAjoAc78PF7fRiK-20" value="クイズを制御する関数" style="text;html=1;strokeColor=none;fillColor=none;align=center;verticalAlign=middle;whiteSpace=wrap;rounded=0;labelBackgroundColor=#FF66FF;fontSize=24;" vertex="1" parent="1">
          <mxGeometry x="490" y="80" width="250" height="20" as="geometry" />
        </mxCell>
        <mxCell id="4wot5gAjoAc78PF7fRiK-25" style="edgeStyle=orthogonalEdgeStyle;rounded=0;orthogonalLoop=1;jettySize=auto;html=1;fontSize=12;" edge="1" parent="1" source="4wot5gAjoAc78PF7fRiK-21" target="4wot5gAjoAc78PF7fRiK-22">
          <mxGeometry relative="1" as="geometry" />
        </mxCell>
        <mxCell id="4wot5gAjoAc78PF7fRiK-21" value="クイズの開始" style="strokeWidth=2;html=1;shape=mxgraph.flowchart.start_1;whiteSpace=wrap;labelBackgroundColor=none;fontSize=12;" vertex="1" parent="1">
          <mxGeometry x="790" y="30" width="100" height="60" as="geometry" />
        </mxCell>
        <mxCell id="4wot5gAjoAc78PF7fRiK-26" style="edgeStyle=orthogonalEdgeStyle;rounded=0;orthogonalLoop=1;jettySize=auto;html=1;fontSize=12;" edge="1" parent="1" source="4wot5gAjoAc78PF7fRiK-22" target="4wot5gAjoAc78PF7fRiK-23">
          <mxGeometry relative="1" as="geometry" />
        </mxCell>
        <mxCell id="4wot5gAjoAc78PF7fRiK-22" value="スタート画面の表示" style="verticalLabelPosition=bottom;verticalAlign=top;html=1;shape=process;whiteSpace=wrap;rounded=1;size=0.14;arcSize=6;labelBackgroundColor=none;fontSize=12;" vertex="1" parent="1">
          <mxGeometry x="780" y="150" width="120" height="60" as="geometry" />
        </mxCell>
        <mxCell id="4wot5gAjoAc78PF7fRiK-28" style="edgeStyle=orthogonalEdgeStyle;rounded=0;orthogonalLoop=1;jettySize=auto;html=1;fontSize=12;" edge="1" parent="1" source="4wot5gAjoAc78PF7fRiK-23">
          <mxGeometry relative="1" as="geometry">
            <mxPoint x="840" y="450" as="targetPoint" />
          </mxGeometry>
        </mxCell>
        <mxCell id="4wot5gAjoAc78PF7fRiK-29" style="edgeStyle=orthogonalEdgeStyle;rounded=0;orthogonalLoop=1;jettySize=auto;html=1;entryX=1.008;entryY=0.367;entryDx=0;entryDy=0;entryPerimeter=0;fontSize=12;" edge="1" parent="1" source="4wot5gAjoAc78PF7fRiK-23" target="4wot5gAjoAc78PF7fRiK-22">
          <mxGeometry relative="1" as="geometry">
            <Array as="points">
              <mxPoint x="940" y="335" />
              <mxPoint x="940" y="172" />
            </Array>
          </mxGeometry>
        </mxCell>
        <mxCell id="4wot5gAjoAc78PF7fRiK-23" value="&lt;div&gt;スタートボタンが&lt;/div&gt;&lt;div&gt;押された&lt;/div&gt;" style="strokeWidth=2;html=1;shape=mxgraph.flowchart.decision;whiteSpace=wrap;labelBackgroundColor=none;fontSize=12;" vertex="1" parent="1">
          <mxGeometry x="775" y="280" width="130" height="110" as="geometry" />
        </mxCell>
        <mxCell id="4wot5gAjoAc78PF7fRiK-42" style="edgeStyle=orthogonalEdgeStyle;rounded=0;orthogonalLoop=1;jettySize=auto;html=1;fontSize=12;" edge="1" parent="1" source="4wot5gAjoAc78PF7fRiK-27">
          <mxGeometry relative="1" as="geometry">
            <mxPoint x="840" y="690" as="targetPoint" />
          </mxGeometry>
        </mxCell>
        <mxCell id="4wot5gAjoAc78PF7fRiK-27" value="問題画面の表示" style="verticalLabelPosition=bottom;verticalAlign=top;html=1;shape=process;whiteSpace=wrap;rounded=1;size=0.14;arcSize=6;labelBackgroundColor=none;fontSize=12;" vertex="1" parent="1">
          <mxGeometry x="790" y="580" width="100" height="60" as="geometry" />
        </mxCell>
        <mxCell id="4wot5gAjoAc78PF7fRiK-30" value="Yes" style="text;html=1;strokeColor=none;fillColor=none;align=center;verticalAlign=middle;whiteSpace=wrap;rounded=0;labelBackgroundColor=none;fontSize=12;" vertex="1" parent="1">
          <mxGeometry x="850" y="390" width="40" height="20" as="geometry" />
        </mxCell>
        <mxCell id="4wot5gAjoAc78PF7fRiK-31" value="No" style="text;html=1;strokeColor=none;fillColor=none;align=center;verticalAlign=middle;whiteSpace=wrap;rounded=0;labelBackgroundColor=none;fontSize=12;" vertex="1" parent="1">
          <mxGeometry x="900" y="310" width="40" height="20" as="geometry" />
        </mxCell>
        <mxCell id="4wot5gAjoAc78PF7fRiK-43" style="edgeStyle=orthogonalEdgeStyle;rounded=0;orthogonalLoop=1;jettySize=auto;html=1;entryX=0.02;entryY=0.985;entryDx=0;entryDy=0;entryPerimeter=0;fontSize=12;" edge="1" parent="1" source="4wot5gAjoAc78PF7fRiK-35" target="4wot5gAjoAc78PF7fRiK-46">
          <mxGeometry relative="1" as="geometry">
            <Array as="points">
              <mxPoint x="950" y="750" />
              <mxPoint x="950" y="971" />
            </Array>
          </mxGeometry>
        </mxCell>
        <mxCell id="4wot5gAjoAc78PF7fRiK-45" style="edgeStyle=orthogonalEdgeStyle;rounded=0;orthogonalLoop=1;jettySize=auto;html=1;entryX=0.5;entryY=0;entryDx=0;entryDy=0;fontSize=12;" edge="1" parent="1" source="4wot5gAjoAc78PF7fRiK-35" target="4wot5gAjoAc78PF7fRiK-44">
          <mxGeometry relative="1" as="geometry" />
        </mxCell>
        <mxCell id="4wot5gAjoAc78PF7fRiK-35" value="&lt;div&gt;正解の解答の&lt;/div&gt;&lt;div&gt;ボタンが押された&lt;br&gt;&lt;/div&gt;" style="strokeWidth=2;html=1;shape=mxgraph.flowchart.decision;whiteSpace=wrap;labelBackgroundColor=none;fontSize=12;" vertex="1" parent="1">
          <mxGeometry x="775" y="695" width="130" height="110" as="geometry" />
        </mxCell>
        <mxCell id="4wot5gAjoAc78PF7fRiK-36" value="Yes" style="text;html=1;strokeColor=none;fillColor=none;align=center;verticalAlign=middle;whiteSpace=wrap;rounded=0;labelBackgroundColor=none;fontSize=12;" vertex="1" parent="1">
          <mxGeometry x="850" y="805" width="40" height="20" as="geometry" />
        </mxCell>
        <mxCell id="4wot5gAjoAc78PF7fRiK-37" value="No" style="text;html=1;strokeColor=none;fillColor=none;align=center;verticalAlign=middle;whiteSpace=wrap;rounded=0;labelBackgroundColor=none;fontSize=12;" vertex="1" parent="1">
          <mxGeometry x="900" y="725" width="40" height="20" as="geometry" />
        </mxCell>
        <mxCell id="4wot5gAjoAc78PF7fRiK-41" style="edgeStyle=orthogonalEdgeStyle;rounded=0;orthogonalLoop=1;jettySize=auto;html=1;fontSize=12;" edge="1" parent="1" source="4wot5gAjoAc78PF7fRiK-38" target="4wot5gAjoAc78PF7fRiK-27">
          <mxGeometry relative="1" as="geometry" />
        </mxCell>
        <mxCell id="4wot5gAjoAc78PF7fRiK-38" value="loop" style="strokeWidth=2;html=1;shape=mxgraph.flowchart.loop_limit;whiteSpace=wrap;labelBackgroundColor=none;fontSize=12;" vertex="1" parent="1">
          <mxGeometry x="790" y="460" width="100" height="60" as="geometry" />
        </mxCell>
        <mxCell id="4wot5gAjoAc78PF7fRiK-39" value="Yes" style="text;html=1;strokeColor=none;fillColor=none;align=center;verticalAlign=middle;whiteSpace=wrap;rounded=0;labelBackgroundColor=none;fontSize=12;" vertex="1" parent="1">
          <mxGeometry x="865" y="530" width="40" height="20" as="geometry" />
        </mxCell>
        <mxCell id="4wot5gAjoAc78PF7fRiK-47" style="edgeStyle=orthogonalEdgeStyle;rounded=0;orthogonalLoop=1;jettySize=auto;html=1;entryX=0.5;entryY=1;entryDx=0;entryDy=0;entryPerimeter=0;fontSize=12;" edge="1" parent="1" source="4wot5gAjoAc78PF7fRiK-44" target="4wot5gAjoAc78PF7fRiK-46">
          <mxGeometry relative="1" as="geometry" />
        </mxCell>
        <mxCell id="4wot5gAjoAc78PF7fRiK-44" value="正答数のカウントを1増やす" style="rounded=1;whiteSpace=wrap;html=1;absoluteArcSize=1;arcSize=14;strokeWidth=2;labelBackgroundColor=none;fontSize=12;" vertex="1" parent="1">
          <mxGeometry x="790" y="860" width="100" height="60" as="geometry" />
        </mxCell>
        <mxCell id="4wot5gAjoAc78PF7fRiK-48" style="edgeStyle=orthogonalEdgeStyle;rounded=0;orthogonalLoop=1;jettySize=auto;html=1;entryX=0;entryY=0.5;entryDx=0;entryDy=0;entryPerimeter=0;fontSize=12;" edge="1" parent="1" source="4wot5gAjoAc78PF7fRiK-46" target="4wot5gAjoAc78PF7fRiK-38">
          <mxGeometry relative="1" as="geometry">
            <Array as="points">
              <mxPoint x="710" y="1000" />
              <mxPoint x="710" y="490" />
            </Array>
          </mxGeometry>
        </mxCell>
        <mxCell id="4wot5gAjoAc78PF7fRiK-52" style="edgeStyle=orthogonalEdgeStyle;rounded=0;orthogonalLoop=1;jettySize=auto;html=1;fontSize=12;entryX=0.5;entryY=0;entryDx=0;entryDy=0;" edge="1" parent="1" source="4wot5gAjoAc78PF7fRiK-46" target="4wot5gAjoAc78PF7fRiK-53">
          <mxGeometry relative="1" as="geometry">
            <mxPoint x="840" y="1080" as="targetPoint" />
          </mxGeometry>
        </mxCell>
        <mxCell id="4wot5gAjoAc78PF7fRiK-46" value="出題されていない問題がある" style="strokeWidth=2;html=1;shape=mxgraph.flowchart.loop_limit;whiteSpace=wrap;labelBackgroundColor=none;fontSize=12;rotation=-180;" vertex="1" parent="1">
          <mxGeometry x="790" y="970" width="100" height="60" as="geometry" />
        </mxCell>
        <mxCell id="4wot5gAjoAc78PF7fRiK-49" value="Yes" style="text;html=1;strokeColor=none;fillColor=none;align=center;verticalAlign=middle;whiteSpace=wrap;rounded=0;labelBackgroundColor=none;fontSize=12;" vertex="1" parent="1">
          <mxGeometry x="735" y="970" width="40" height="20" as="geometry" />
        </mxCell>
        <mxCell id="4wot5gAjoAc78PF7fRiK-50" value="No" style="text;html=1;strokeColor=none;fillColor=none;align=center;verticalAlign=middle;whiteSpace=wrap;rounded=0;labelBackgroundColor=none;fontSize=12;" vertex="1" parent="1">
          <mxGeometry x="850" y="1040" width="40" height="20" as="geometry" />
        </mxCell>
        <mxCell id="4wot5gAjoAc78PF7fRiK-55" style="edgeStyle=orthogonalEdgeStyle;rounded=0;orthogonalLoop=1;jettySize=auto;html=1;fontSize=12;" edge="1" parent="1" source="4wot5gAjoAc78PF7fRiK-53" target="4wot5gAjoAc78PF7fRiK-54">
          <mxGeometry relative="1" as="geometry" />
        </mxCell>
        <mxCell id="4wot5gAjoAc78PF7fRiK-53" value="正答数を表示" style="rounded=1;whiteSpace=wrap;html=1;absoluteArcSize=1;arcSize=14;strokeWidth=2;labelBackgroundColor=none;fontSize=12;" vertex="1" parent="1">
          <mxGeometry x="790" y="1090" width="100" height="60" as="geometry" />
        </mxCell>
        <mxCell id="4wot5gAjoAc78PF7fRiK-54" value="終了" style="strokeWidth=2;html=1;shape=mxgraph.flowchart.terminator;whiteSpace=wrap;labelBackgroundColor=none;fontSize=12;" vertex="1" parent="1">
          <mxGeometry x="790" y="1210" width="100" height="60" as="geometry" />
        </mxCell>
      </root>
    </mxGraphModel>
  </diagram>
</mxfile>
